<mxfile host="app.diagrams.net" modified="2023-03-05T04:39:03.636Z" agent="5.0 (Windows NT 10.0; Win64; x64) AppleWebKit/537.36 (KHTML, like Gecko) Chrome/110.0.0.0 Safari/537.36 Edg/110.0.1587.57" etag="vAKZPWI6-qd54e3wcyL1" version="21.0.2" type="github" pages="2">
  <diagram name="Stack" id="dG-EW_NjcqGvvalpMA4f">
    <mxGraphModel dx="6300" dy="6341" grid="1" gridSize="10" guides="1" tooltips="1" connect="1" arrows="1" fold="1" page="1" pageScale="1" pageWidth="3300" pageHeight="4681" math="0" shadow="0">
      <root>
        <mxCell id="0" />
        <mxCell id="1" parent="0" />
        <mxCell id="TFtgP4CmDhFIutkzdCsM-5" value="1" style="edgeStyle=orthogonalEdgeStyle;rounded=0;orthogonalLoop=1;jettySize=auto;html=1;entryX=0.5;entryY=0;entryDx=0;entryDy=0;" edge="1" parent="1" source="TFtgP4CmDhFIutkzdCsM-1" target="TFtgP4CmDhFIutkzdCsM-4">
          <mxGeometry relative="1" as="geometry" />
        </mxCell>
        <mxCell id="TFtgP4CmDhFIutkzdCsM-8" value="2" style="edgeStyle=orthogonalEdgeStyle;rounded=0;orthogonalLoop=1;jettySize=auto;html=1;" edge="1" parent="1" source="TFtgP4CmDhFIutkzdCsM-1" target="TFtgP4CmDhFIutkzdCsM-6">
          <mxGeometry relative="1" as="geometry" />
        </mxCell>
        <mxCell id="TFtgP4CmDhFIutkzdCsM-1" value="16, 0, 0" style="rounded=0;whiteSpace=wrap;html=1;" vertex="1" parent="1">
          <mxGeometry x="480" y="270" width="120" height="60" as="geometry" />
        </mxCell>
        <mxCell id="TFtgP4CmDhFIutkzdCsM-2" value="&lt;h1&gt;Hành động&lt;/h1&gt;&lt;div&gt;1. A--&amp;gt;B&lt;/div&gt;&lt;div&gt;2.A--&amp;gt;C&lt;/div&gt;&lt;div&gt;3.B--&amp;gt;C&lt;/div&gt;&lt;div&gt;4.B--&amp;gt;A&lt;/div&gt;&lt;div&gt;5.C--&amp;gt;A&lt;/div&gt;&lt;div&gt;6 C--&amp;gt;B&lt;/div&gt;&lt;div&gt;&lt;br&gt;&lt;/div&gt;" style="text;html=1;strokeColor=none;fillColor=none;spacing=5;spacingTop=-20;whiteSpace=wrap;overflow=hidden;rounded=0;" vertex="1" parent="1">
          <mxGeometry x="-80" y="-30" width="190" height="180" as="geometry" />
        </mxCell>
        <mxCell id="TFtgP4CmDhFIutkzdCsM-3" value="&lt;h1&gt;Trạng thái cuối&lt;/h1&gt;&lt;div&gt;&lt;br&gt;&lt;/div&gt;&lt;div&gt;(8, X, Y), DK X+Y = 8&lt;/div&gt;&lt;div&gt;&lt;br&gt;&lt;/div&gt;&lt;div&gt;Max X&amp;nbsp; = 7, Max Y = 3&lt;/div&gt;" style="text;html=1;strokeColor=none;fillColor=none;spacing=5;spacingTop=-20;whiteSpace=wrap;overflow=hidden;rounded=0;" vertex="1" parent="1">
          <mxGeometry x="80" y="-30" width="190" height="120" as="geometry" />
        </mxCell>
        <mxCell id="TFtgP4CmDhFIutkzdCsM-4" value="9, 7, 0" style="rounded=0;whiteSpace=wrap;html=1;" vertex="1" parent="1">
          <mxGeometry y="430" width="120" height="60" as="geometry" />
        </mxCell>
        <mxCell id="TFtgP4CmDhFIutkzdCsM-9" style="edgeStyle=orthogonalEdgeStyle;rounded=0;orthogonalLoop=1;jettySize=auto;html=1;" edge="1" parent="1" source="TFtgP4CmDhFIutkzdCsM-6" target="TFtgP4CmDhFIutkzdCsM-7">
          <mxGeometry relative="1" as="geometry" />
        </mxCell>
        <mxCell id="TFtgP4CmDhFIutkzdCsM-12" value="1" style="edgeLabel;html=1;align=center;verticalAlign=middle;resizable=0;points=[];" vertex="1" connectable="0" parent="TFtgP4CmDhFIutkzdCsM-9">
          <mxGeometry x="-0.2492" relative="1" as="geometry">
            <mxPoint as="offset" />
          </mxGeometry>
        </mxCell>
        <mxCell id="TFtgP4CmDhFIutkzdCsM-11" style="edgeStyle=orthogonalEdgeStyle;rounded=0;orthogonalLoop=1;jettySize=auto;html=1;" edge="1" parent="1" source="TFtgP4CmDhFIutkzdCsM-6">
          <mxGeometry relative="1" as="geometry">
            <mxPoint x="1060" y="540" as="targetPoint" />
          </mxGeometry>
        </mxCell>
        <mxCell id="TFtgP4CmDhFIutkzdCsM-13" value="6" style="edgeLabel;html=1;align=center;verticalAlign=middle;resizable=0;points=[];" vertex="1" connectable="0" parent="TFtgP4CmDhFIutkzdCsM-11">
          <mxGeometry x="-0.0696" y="1" relative="1" as="geometry">
            <mxPoint as="offset" />
          </mxGeometry>
        </mxCell>
        <mxCell id="TFtgP4CmDhFIutkzdCsM-6" value="13, 0, 3" style="rounded=0;whiteSpace=wrap;html=1;" vertex="1" parent="1">
          <mxGeometry x="840" y="420" width="120" height="60" as="geometry" />
        </mxCell>
        <mxCell id="TFtgP4CmDhFIutkzdCsM-7" value="6, 7, 3" style="rounded=0;whiteSpace=wrap;html=1;" vertex="1" parent="1">
          <mxGeometry x="600" y="540" width="120" height="60" as="geometry" />
        </mxCell>
        <mxCell id="TFtgP4CmDhFIutkzdCsM-19" style="edgeStyle=orthogonalEdgeStyle;rounded=0;orthogonalLoop=1;jettySize=auto;html=1;entryX=0.5;entryY=0;entryDx=0;entryDy=0;" edge="1" parent="1" source="TFtgP4CmDhFIutkzdCsM-10" target="TFtgP4CmDhFIutkzdCsM-18">
          <mxGeometry relative="1" as="geometry" />
        </mxCell>
        <mxCell id="TFtgP4CmDhFIutkzdCsM-20" value="2" style="edgeLabel;html=1;align=center;verticalAlign=middle;resizable=0;points=[];" vertex="1" connectable="0" parent="TFtgP4CmDhFIutkzdCsM-19">
          <mxGeometry x="-0.38" relative="1" as="geometry">
            <mxPoint as="offset" />
          </mxGeometry>
        </mxCell>
        <mxCell id="TFtgP4CmDhFIutkzdCsM-10" value="13, 3, 0" style="rounded=0;whiteSpace=wrap;html=1;" vertex="1" parent="1">
          <mxGeometry x="1000" y="540" width="120" height="60" as="geometry" />
        </mxCell>
        <mxCell id="TFtgP4CmDhFIutkzdCsM-29" value="6" style="edgeStyle=orthogonalEdgeStyle;rounded=0;orthogonalLoop=1;jettySize=auto;html=1;entryX=0.5;entryY=0;entryDx=0;entryDy=0;" edge="1" parent="1" source="TFtgP4CmDhFIutkzdCsM-18" target="TFtgP4CmDhFIutkzdCsM-28">
          <mxGeometry relative="1" as="geometry" />
        </mxCell>
        <mxCell id="TFtgP4CmDhFIutkzdCsM-18" value="10, 3, 3" style="rounded=0;whiteSpace=wrap;html=1;" vertex="1" parent="1">
          <mxGeometry x="1160" y="700" width="120" height="60" as="geometry" />
        </mxCell>
        <mxCell id="TFtgP4CmDhFIutkzdCsM-31" value="2" style="edgeStyle=orthogonalEdgeStyle;rounded=0;orthogonalLoop=1;jettySize=auto;html=1;" edge="1" parent="1" source="TFtgP4CmDhFIutkzdCsM-28" target="TFtgP4CmDhFIutkzdCsM-30">
          <mxGeometry relative="1" as="geometry" />
        </mxCell>
        <mxCell id="TFtgP4CmDhFIutkzdCsM-28" value="10, 6, 0" style="rounded=0;whiteSpace=wrap;html=1;" vertex="1" parent="1">
          <mxGeometry x="1470" y="820" width="120" height="60" as="geometry" />
        </mxCell>
        <mxCell id="TFtgP4CmDhFIutkzdCsM-33" value="6" style="edgeStyle=orthogonalEdgeStyle;rounded=0;orthogonalLoop=1;jettySize=auto;html=1;entryX=0.5;entryY=0;entryDx=0;entryDy=0;" edge="1" parent="1" source="TFtgP4CmDhFIutkzdCsM-30" target="TFtgP4CmDhFIutkzdCsM-32">
          <mxGeometry relative="1" as="geometry" />
        </mxCell>
        <mxCell id="TFtgP4CmDhFIutkzdCsM-30" value="7, 6, 3" style="rounded=0;whiteSpace=wrap;html=1;" vertex="1" parent="1">
          <mxGeometry x="1470" y="1020" width="120" height="60" as="geometry" />
        </mxCell>
        <mxCell id="TFtgP4CmDhFIutkzdCsM-37" value="4" style="edgeStyle=orthogonalEdgeStyle;rounded=0;orthogonalLoop=1;jettySize=auto;html=1;entryX=0.5;entryY=0;entryDx=0;entryDy=0;" edge="1" parent="1" source="TFtgP4CmDhFIutkzdCsM-32" target="TFtgP4CmDhFIutkzdCsM-36">
          <mxGeometry relative="1" as="geometry" />
        </mxCell>
        <mxCell id="TFtgP4CmDhFIutkzdCsM-32" value="7, 7, 2" style="rounded=0;whiteSpace=wrap;html=1;" vertex="1" parent="1">
          <mxGeometry x="1470" y="1140" width="120" height="60" as="geometry" />
        </mxCell>
        <mxCell id="TFtgP4CmDhFIutkzdCsM-42" value="6" style="edgeStyle=orthogonalEdgeStyle;rounded=0;orthogonalLoop=1;jettySize=auto;html=1;entryX=0.5;entryY=0;entryDx=0;entryDy=0;" edge="1" parent="1" source="TFtgP4CmDhFIutkzdCsM-36" target="TFtgP4CmDhFIutkzdCsM-41">
          <mxGeometry relative="1" as="geometry" />
        </mxCell>
        <mxCell id="TFtgP4CmDhFIutkzdCsM-36" value="14, 0, 2" style="rounded=0;whiteSpace=wrap;html=1;" vertex="1" parent="1">
          <mxGeometry x="1470" y="1260" width="120" height="60" as="geometry" />
        </mxCell>
        <mxCell id="TFtgP4CmDhFIutkzdCsM-44" value="2" style="edgeStyle=orthogonalEdgeStyle;rounded=0;orthogonalLoop=1;jettySize=auto;html=1;entryX=0.5;entryY=0;entryDx=0;entryDy=0;" edge="1" parent="1" source="TFtgP4CmDhFIutkzdCsM-41" target="TFtgP4CmDhFIutkzdCsM-43">
          <mxGeometry relative="1" as="geometry" />
        </mxCell>
        <mxCell id="TFtgP4CmDhFIutkzdCsM-41" value="14, 2, 0" style="rounded=0;whiteSpace=wrap;html=1;" vertex="1" parent="1">
          <mxGeometry x="1470" y="1420" width="120" height="60" as="geometry" />
        </mxCell>
        <mxCell id="TFtgP4CmDhFIutkzdCsM-48" value="6" style="edgeStyle=orthogonalEdgeStyle;rounded=0;orthogonalLoop=1;jettySize=auto;html=1;entryX=0.5;entryY=0;entryDx=0;entryDy=0;" edge="1" parent="1" source="TFtgP4CmDhFIutkzdCsM-43" target="TFtgP4CmDhFIutkzdCsM-46">
          <mxGeometry relative="1" as="geometry" />
        </mxCell>
        <mxCell id="TFtgP4CmDhFIutkzdCsM-43" value="11, 2, 3" style="rounded=0;whiteSpace=wrap;html=1;" vertex="1" parent="1">
          <mxGeometry x="1470" y="1580" width="120" height="60" as="geometry" />
        </mxCell>
        <mxCell id="TFtgP4CmDhFIutkzdCsM-52" value="2" style="edgeStyle=orthogonalEdgeStyle;rounded=0;orthogonalLoop=1;jettySize=auto;html=1;" edge="1" parent="1" source="TFtgP4CmDhFIutkzdCsM-46" target="TFtgP4CmDhFIutkzdCsM-51">
          <mxGeometry relative="1" as="geometry" />
        </mxCell>
        <mxCell id="TFtgP4CmDhFIutkzdCsM-46" value="11, 5, 0" style="rounded=0;whiteSpace=wrap;html=1;" vertex="1" parent="1">
          <mxGeometry x="1470" y="1700" width="120" height="60" as="geometry" />
        </mxCell>
        <mxCell id="TFtgP4CmDhFIutkzdCsM-51" value="8, 5, 3" style="rounded=0;whiteSpace=wrap;html=1;fillColor=#d5e8d4;strokeColor=#82b366;" vertex="1" parent="1">
          <mxGeometry x="1470" y="1820" width="120" height="60" as="geometry" />
        </mxCell>
      </root>
    </mxGraphModel>
  </diagram>
  <diagram id="Z6RMqO0SwZaBrjJc8u5S" name="Queu">
    <mxGraphModel dx="4255" dy="5209" grid="1" gridSize="10" guides="1" tooltips="1" connect="1" arrows="1" fold="1" page="1" pageScale="1" pageWidth="3300" pageHeight="4681" math="0" shadow="0">
      <root>
        <mxCell id="0" />
        <mxCell id="1" parent="0" />
        <mxCell id="IWhF3KaInKaJhHAjJOew-1" value="&lt;h1&gt;Trạng thái cuối&lt;/h1&gt;&lt;div&gt;&lt;br&gt;&lt;/div&gt;&lt;div&gt;(8, X, Y), DK X+Y = 8&lt;/div&gt;&lt;div&gt;&lt;br&gt;&lt;/div&gt;&lt;div&gt;Max X&amp;nbsp; = 7, Max Y = 3&lt;/div&gt;" style="text;html=1;strokeColor=none;fillColor=none;spacing=5;spacingTop=-20;whiteSpace=wrap;overflow=hidden;rounded=0;" vertex="1" parent="1">
          <mxGeometry x="80" y="-30" width="190" height="120" as="geometry" />
        </mxCell>
        <mxCell id="0CoYkJkfnXaRcMCr3eDk-1" value="&lt;h1&gt;Hành động&lt;/h1&gt;&lt;div&gt;1. A--&amp;gt;B&lt;/div&gt;&lt;div&gt;2.A--&amp;gt;C&lt;/div&gt;&lt;div&gt;3.B--&amp;gt;C&lt;/div&gt;&lt;div&gt;4.B--&amp;gt;A&lt;/div&gt;&lt;div&gt;5.C--&amp;gt;A&lt;/div&gt;&lt;div&gt;6 C--&amp;gt;B&lt;/div&gt;&lt;div&gt;&lt;br&gt;&lt;/div&gt;" style="text;html=1;strokeColor=none;fillColor=none;spacing=5;spacingTop=-20;whiteSpace=wrap;overflow=hidden;rounded=0;" vertex="1" parent="1">
          <mxGeometry x="-80" y="-30" width="190" height="180" as="geometry" />
        </mxCell>
        <mxCell id="iKKxHTlWigBLFFjiKbFW-1" value="1" style="edgeStyle=orthogonalEdgeStyle;rounded=0;orthogonalLoop=1;jettySize=auto;html=1;entryX=0.5;entryY=0;entryDx=0;entryDy=0;" edge="1" parent="1" source="iKKxHTlWigBLFFjiKbFW-3" target="iKKxHTlWigBLFFjiKbFW-4">
          <mxGeometry relative="1" as="geometry" />
        </mxCell>
        <mxCell id="iKKxHTlWigBLFFjiKbFW-2" value="2" style="edgeStyle=orthogonalEdgeStyle;rounded=0;orthogonalLoop=1;jettySize=auto;html=1;" edge="1" parent="1" source="iKKxHTlWigBLFFjiKbFW-3" target="iKKxHTlWigBLFFjiKbFW-6">
          <mxGeometry relative="1" as="geometry" />
        </mxCell>
        <mxCell id="iKKxHTlWigBLFFjiKbFW-3" value="16, 0, 0" style="rounded=0;whiteSpace=wrap;html=1;" vertex="1" parent="1">
          <mxGeometry x="690" y="190" width="120" height="60" as="geometry" />
        </mxCell>
        <mxCell id="iKKxHTlWigBLFFjiKbFW-8" style="edgeStyle=orthogonalEdgeStyle;rounded=0;orthogonalLoop=1;jettySize=auto;html=1;entryX=0.5;entryY=0;entryDx=0;entryDy=0;" edge="1" parent="1" source="iKKxHTlWigBLFFjiKbFW-4" target="iKKxHTlWigBLFFjiKbFW-7">
          <mxGeometry relative="1" as="geometry" />
        </mxCell>
        <mxCell id="iKKxHTlWigBLFFjiKbFW-9" value="2" style="edgeLabel;html=1;align=center;verticalAlign=middle;resizable=0;points=[];" vertex="1" connectable="0" parent="iKKxHTlWigBLFFjiKbFW-8">
          <mxGeometry x="-0.3765" relative="1" as="geometry">
            <mxPoint as="offset" />
          </mxGeometry>
        </mxCell>
        <mxCell id="iKKxHTlWigBLFFjiKbFW-11" style="edgeStyle=orthogonalEdgeStyle;rounded=0;orthogonalLoop=1;jettySize=auto;html=1;entryX=0.5;entryY=0;entryDx=0;entryDy=0;" edge="1" parent="1" source="iKKxHTlWigBLFFjiKbFW-4" target="iKKxHTlWigBLFFjiKbFW-10">
          <mxGeometry relative="1" as="geometry">
            <Array as="points">
              <mxPoint x="380" y="370" />
            </Array>
          </mxGeometry>
        </mxCell>
        <mxCell id="iKKxHTlWigBLFFjiKbFW-12" value="3" style="edgeLabel;html=1;align=center;verticalAlign=middle;resizable=0;points=[];" vertex="1" connectable="0" parent="iKKxHTlWigBLFFjiKbFW-11">
          <mxGeometry x="-0.2958" y="1" relative="1" as="geometry">
            <mxPoint as="offset" />
          </mxGeometry>
        </mxCell>
        <mxCell id="iKKxHTlWigBLFFjiKbFW-4" value="9, 7, 0" style="rounded=0;whiteSpace=wrap;html=1;" vertex="1" parent="1">
          <mxGeometry x="210" y="340.08" width="120" height="60" as="geometry" />
        </mxCell>
        <mxCell id="iKKxHTlWigBLFFjiKbFW-14" value="1" style="edgeStyle=orthogonalEdgeStyle;rounded=0;orthogonalLoop=1;jettySize=auto;html=1;" edge="1" parent="1" source="iKKxHTlWigBLFFjiKbFW-6" target="iKKxHTlWigBLFFjiKbFW-13">
          <mxGeometry relative="1" as="geometry" />
        </mxCell>
        <mxCell id="iKKxHTlWigBLFFjiKbFW-16" value="6" style="edgeStyle=orthogonalEdgeStyle;rounded=0;orthogonalLoop=1;jettySize=auto;html=1;" edge="1" parent="1" source="iKKxHTlWigBLFFjiKbFW-6" target="iKKxHTlWigBLFFjiKbFW-15">
          <mxGeometry relative="1" as="geometry" />
        </mxCell>
        <mxCell id="iKKxHTlWigBLFFjiKbFW-6" value="13, 0, 3" style="rounded=0;whiteSpace=wrap;html=1;" vertex="1" parent="1">
          <mxGeometry x="1050" y="340" width="120" height="60" as="geometry" />
        </mxCell>
        <mxCell id="iKKxHTlWigBLFFjiKbFW-7" value="6, 7, 3" style="rounded=0;whiteSpace=wrap;html=1;fillColor=#f8cecc;strokeColor=#b85450;" vertex="1" parent="1">
          <mxGeometry x="80" y="500" width="120" height="60" as="geometry" />
        </mxCell>
        <mxCell id="iKKxHTlWigBLFFjiKbFW-20" value="5" style="edgeStyle=orthogonalEdgeStyle;rounded=0;orthogonalLoop=1;jettySize=auto;html=1;" edge="1" parent="1" source="iKKxHTlWigBLFFjiKbFW-10" target="iKKxHTlWigBLFFjiKbFW-19">
          <mxGeometry relative="1" as="geometry">
            <Array as="points">
              <mxPoint x="380" y="660" />
              <mxPoint x="380" y="660" />
            </Array>
          </mxGeometry>
        </mxCell>
        <mxCell id="iKKxHTlWigBLFFjiKbFW-10" value="9, 4, 3" style="rounded=0;whiteSpace=wrap;html=1;" vertex="1" parent="1">
          <mxGeometry x="320" y="500" width="120" height="60" as="geometry" />
        </mxCell>
        <mxCell id="iKKxHTlWigBLFFjiKbFW-13" value="6, 7, 3" style="rounded=0;whiteSpace=wrap;html=1;fillColor=#fff2cc;strokeColor=#d6b656;" vertex="1" parent="1">
          <mxGeometry x="820" y="500" width="120" height="60" as="geometry" />
        </mxCell>
        <mxCell id="iKKxHTlWigBLFFjiKbFW-26" style="edgeStyle=orthogonalEdgeStyle;rounded=0;orthogonalLoop=1;jettySize=auto;html=1;entryX=0.5;entryY=0;entryDx=0;entryDy=0;" edge="1" parent="1" source="iKKxHTlWigBLFFjiKbFW-15" target="iKKxHTlWigBLFFjiKbFW-25">
          <mxGeometry relative="1" as="geometry" />
        </mxCell>
        <mxCell id="iKKxHTlWigBLFFjiKbFW-27" value="2" style="edgeLabel;html=1;align=center;verticalAlign=middle;resizable=0;points=[];" vertex="1" connectable="0" parent="iKKxHTlWigBLFFjiKbFW-26">
          <mxGeometry x="-0.3053" y="3" relative="1" as="geometry">
            <mxPoint as="offset" />
          </mxGeometry>
        </mxCell>
        <mxCell id="iKKxHTlWigBLFFjiKbFW-15" value="13, 3, 0" style="rounded=0;whiteSpace=wrap;html=1;" vertex="1" parent="1">
          <mxGeometry x="1240" y="500" width="120" height="60" as="geometry" />
        </mxCell>
        <mxCell id="iKKxHTlWigBLFFjiKbFW-29" style="edgeStyle=orthogonalEdgeStyle;rounded=0;orthogonalLoop=1;jettySize=auto;html=1;entryX=0.5;entryY=0;entryDx=0;entryDy=0;" edge="1" parent="1" source="iKKxHTlWigBLFFjiKbFW-19" target="iKKxHTlWigBLFFjiKbFW-28">
          <mxGeometry relative="1" as="geometry">
            <Array as="points">
              <mxPoint x="380" y="820" />
              <mxPoint x="380" y="820" />
            </Array>
          </mxGeometry>
        </mxCell>
        <mxCell id="iKKxHTlWigBLFFjiKbFW-30" value="3" style="edgeLabel;html=1;align=center;verticalAlign=middle;resizable=0;points=[];" vertex="1" connectable="0" parent="iKKxHTlWigBLFFjiKbFW-29">
          <mxGeometry x="-0.3414" y="4" relative="1" as="geometry">
            <mxPoint as="offset" />
          </mxGeometry>
        </mxCell>
        <mxCell id="iKKxHTlWigBLFFjiKbFW-19" value="12, 4, 0" style="rounded=0;whiteSpace=wrap;html=1;" vertex="1" parent="1">
          <mxGeometry x="320" y="700" width="120" height="60" as="geometry" />
        </mxCell>
        <mxCell id="TivJ-dMTYxtX66HS6r5j-3" style="edgeStyle=orthogonalEdgeStyle;rounded=0;orthogonalLoop=1;jettySize=auto;html=1;entryX=0.5;entryY=0;entryDx=0;entryDy=0;" edge="1" parent="1" source="iKKxHTlWigBLFFjiKbFW-25" target="TivJ-dMTYxtX66HS6r5j-2">
          <mxGeometry relative="1" as="geometry" />
        </mxCell>
        <mxCell id="iKKxHTlWigBLFFjiKbFW-25" value="10, 3, 3" style="rounded=0;whiteSpace=wrap;html=1;" vertex="1" parent="1">
          <mxGeometry x="1240" y="700" width="120" height="60" as="geometry" />
        </mxCell>
        <mxCell id="iKKxHTlWigBLFFjiKbFW-28" value="12, 1, 3" style="rounded=0;whiteSpace=wrap;html=1;" vertex="1" parent="1">
          <mxGeometry x="320" y="860" width="120" height="60" as="geometry" />
        </mxCell>
        <mxCell id="TivJ-dMTYxtX66HS6r5j-2" value="10, 6, 0" style="rounded=0;whiteSpace=wrap;html=1;" vertex="1" parent="1">
          <mxGeometry x="1240" y="860" width="120" height="60" as="geometry" />
        </mxCell>
      </root>
    </mxGraphModel>
  </diagram>
</mxfile>
